<?xml version="1.0" standalone="no"?>
<!DOCTYPE svg PUBLIC "-//W3C//DTD SVG 20010904//EN"
 "http://www.w3.org/TR/2001/REC-SVG-20010904/DTD/svg10.dtd">
<svg version="1.0" xmlns="http://www.w3.org/2000/svg"
 width="750.400000pt" height="750.400000pt" viewBox="0 0 750.400000 750.400000"
 preserveAspectRatio="xMidYMid meet">
<metadata>
Created by potrace 1.13, written by Peter Selinger 2001-2015
</metadata>
<g transform="translate(0.000000,750.400000) scale(0.080000,-0.080000)"
fill="#000000" stroke="none">
<path d="M4124 9153 c-183 -27 -312 -51 -335 -64 -10 -5 -27 -9 -38 -9 -19 0
-63 -12 -201 -55 -25 -7 -63 -17 -85 -21 -22 -4 -57 -15 -77 -25 -21 -11 -47
-19 -60 -19 -12 0 -45 -9 -73 -19 -52 -20 -227 -85 -257 -97 -29 -10 -20 18
13 46 60 49 79 69 79 84 0 31 -63 32 -160 1 -138 -44 -200 -66 -226 -80 -16
-8 -36 -15 -45 -15 -8 0 -19 -4 -25 -9 -5 -4 -52 -27 -104 -51 -194 -87 -270
-123 -345 -165 -27 -15 -81 -44 -120 -64 -220 -117 -208 -110 -430 -257 -82
-54 -166 -113 -185 -131 -19 -18 -65 -56 -101 -85 -230 -184 -302 -251 -364
-338 -96 -132 -100 -145 -100 -280 0 -75 7 -142 19 -194 l18 -78 -44 -67 c-61
-91 -135 -200 -186 -274 -50 -71 -168 -304 -183 -361 -15 -57 4 -123 63 -213
49 -76 199 -234 272 -289 22 -16 51 -39 65 -52 13 -12 45 -35 70 -52 25 -16
53 -36 62 -44 8 -9 58 -37 110 -64 206 -107 187 -87 169 -181 -23 -121 -70
-465 -70 -511 0 -60 29 -140 68 -189 33 -42 143 -205 162 -241 23 -43 30 -93
19 -135 -31 -115 -187 -434 -281 -574 -35 -52 -76 -113 -91 -137 -38 -56 -31
-90 32 -154 52 -54 116 -90 159 -90 42 0 168 -30 187 -44 16 -12 32 -57 61
-181 23 -93 72 -230 122 -340 54 -119 82 -166 111 -186 15 -10 28 -38 42 -94
23 -91 56 -135 100 -135 15 0 31 -4 34 -10 3 -5 16 -10 28 -10 37 0 73 -42
157 -181 104 -175 126 -204 183 -250 47 -38 51 -39 127 -39 60 0 96 6 152 27
40 14 78 29 83 33 6 4 55 31 110 60 55 29 118 65 140 80 64 42 124 75 298 164
89 45 180 94 202 108 77 48 108 54 181 35 102 -26 192 -92 241 -177 63 -108
243 -603 243 -669 0 -17 -48 -72 -173 -200 -95 -97 -198 -208 -229 -247 -31
-39 -82 -98 -114 -130 -31 -33 -64 -70 -72 -84 -25 -40 -106 -145 -115 -148
-4 -2 -22 -36 -41 -75 -31 -69 -61 -176 -86 -317 -6 -36 -15 -83 -20 -105 -19
-81 -41 -203 -59 -325 -11 -69 -22 -133 -26 -142 -10 -26 39 -24 65 2 11 11
24 20 30 20 6 0 19 -9 30 -20 28 -28 50 -26 50 5 0 26 -25 45 -59 45 -33 0
-34 17 -2 78 17 31 50 97 73 147 23 50 81 169 130 265 79 156 99 214 68 195
-6 -4 -28 -41 -50 -83 -22 -42 -48 -93 -59 -112 -11 -19 -56 -110 -100 -202
-44 -93 -85 -168 -91 -168 -12 0 -12 -2 0 57 5 26 25 134 45 238 48 253 89
398 129 460 35 53 138 185 196 250 94 105 113 125 122 125 9 0 6 -56 -8 -170
-8 -64 12 -223 38 -297 32 -93 52 -108 146 -108 42 0 100 6 127 13 28 7 66 17
85 21 34 8 184 77 225 103 10 7 51 33 90 58 38 25 77 51 85 58 8 7 62 50 120
94 58 45 128 103 155 128 28 26 72 67 99 91 28 24 100 95 160 158 61 63 149
153 196 200 47 47 103 109 125 136 55 70 178 208 192 218 7 4 37 38 67 76 30
37 72 85 93 107 22 21 46 49 55 62 8 12 31 39 50 60 81 88 248 274 312 348 38
43 80 85 93 92 19 11 58 12 167 8 77 -4 203 -9 279 -11 174 -5 207 -11 207
-36 0 -13 -7 -19 -22 -19 -31 0 -231 -82 -355 -146 -144 -74 -328 -189 -372
-233 -9 -9 -44 -40 -77 -68 -57 -49 -65 -62 -117 -180 -101 -232 -218 -565
-291 -833 -9 -30 -32 -113 -51 -185 -66 -239 -74 -269 -95 -375 -12 -58 -30
-143 -41 -190 -11 -52 -19 -123 -19 -178 0 -101 10 -129 85 -247 19 -30 35
-59 35 -65 0 -5 11 -10 25 -10 14 0 25 5 25 11 0 6 -17 41 -38 77 -81 141 -99
217 -82 335 12 88 99 476 126 567 9 30 26 96 39 145 57 225 229 748 270 822
13 23 31 66 40 95 33 99 64 141 175 230 147 118 352 239 565 333 227 100 239
105 315 111 52 5 81 1 145 -19 125 -39 164 -55 220 -92 85 -57 254 -214 337
-315 43 -52 97 -116 119 -142 46 -54 141 -209 175 -284 28 -63 79 -256 95
-361 9 -61 9 -101 0 -179 -27 -225 -28 -233 -50 -219 -6 3 -11 26 -11 50 0 45
-16 68 -31 44 -4 -8 -6 -34 -3 -59 5 -53 21 -253 34 -430 8 -116 15 -194 41
-475 6 -60 13 -140 16 -177 5 -63 7 -68 29 -68 29 0 29 5 9 160 -8 63 -26 267
-40 452 -25 315 -25 341 -11 395 62 227 81 449 52 593 -28 139 -107 334 -181
450 -54 85 -171 234 -257 328 -84 91 -261 243 -320 275 -28 15 -56 31 -62 36
-15 12 -85 38 -171 63 -90 25 -331 47 -662 58 -234 8 -265 11 -302 29 -22 12
-48 21 -59 21 -10 0 -22 4 -28 10 -12 12 -156 39 -279 51 -68 7 -108 16 -125
28 -14 10 -60 69 -103 132 -71 103 -117 188 -217 404 -18 39 -37 78 -42 88
-13 24 17 34 41 13 20 -18 76 -22 86 -6 4 6 -12 42 -34 79 -46 78 -77 159 -64
171 4 5 46 11 93 13 112 6 275 25 325 38 22 6 63 15 90 20 233 45 345 82 345
113 0 24 -50 36 -148 36 -96 0 -130 8 -118 28 3 6 21 14 39 18 17 3 48 15 67
25 19 11 38 19 42 19 9 0 186 101 228 130 36 26 203 163 231 191 33 33 167
187 226 260 34 41 69 81 78 89 9 7 23 27 31 42 9 16 35 56 60 88 42 55 57 100
33 100 -13 0 -108 -47 -129 -64 -8 -6 -40 -22 -70 -35 -30 -12 -68 -29 -83
-37 -16 -8 -39 -14 -52 -14 -12 0 -42 -9 -66 -20 -24 -11 -54 -20 -66 -20 -25
0 -32 25 -9 33 25 10 149 111 205 169 64 64 126 137 161 188 13 19 45 60 70
90 87 104 183 240 306 434 29 44 56 86 61 91 31 34 110 168 171 290 24 49 54
105 67 125 12 19 30 58 40 85 10 28 26 69 37 92 11 23 17 46 14 51 -3 5 -70
12 -148 16 -84 5 -156 13 -177 22 -18 8 -64 14 -102 14 -38 0 -69 4 -69 9 0
11 72 61 88 61 7 0 12 4 12 9 0 5 8 11 18 15 9 3 40 19 67 36 28 16 57 33 65
37 8 4 24 15 34 25 11 10 40 28 64 39 24 12 49 30 55 40 7 11 15 19 20 19 10
0 64 38 102 73 16 15 60 51 97 80 113 89 145 166 64 154 -17 -2 -60 2 -96 10
-36 8 -85 19 -110 24 -25 5 -67 16 -95 24 -92 27 -179 47 -255 60 -89 16 -198
37 -295 59 -38 9 -80 16 -92 16 -31 0 -29 26 2 34 14 4 25 11 25 16 0 6 7 10
16 10 8 0 34 10 57 22 60 31 77 40 119 60 20 10 40 22 43 28 3 5 18 10 32 10
13 0 36 9 50 20 14 11 31 20 38 20 20 0 65 40 65 57 0 17 -224 243 -241 243
-5 0 -54 35 -108 78 -91 70 -168 129 -261 196 -19 14 -45 30 -57 35 -13 6 -23
15 -23 21 0 5 -6 10 -13 10 -7 0 -27 12 -44 27 -77 67 -468 253 -531 253 -10
0 -22 4 -28 9 -5 4 -47 21 -94 36 -156 52 -171 58 -167 69 2 6 19 12 38 14 19
2 41 9 49 17 8 7 37 16 65 20 69 10 105 30 105 59 0 18 -9 27 -42 39 -24 9
-61 19 -83 23 -22 3 -53 12 -70 19 -39 17 -100 33 -210 55 -49 10 -106 23
-125 29 -19 5 -64 14 -100 20 -36 5 -103 17 -150 25 -210 38 -259 46 -320 51
-36 2 -87 10 -115 15 -27 6 -162 13 -300 15 -152 3 -251 9 -253 15 -2 6 5 10
16 10 11 0 31 9 45 20 14 11 32 20 41 20 9 0 16 4 16 10 0 5 17 18 38 27 28
14 38 25 40 46 2 17 -2 28 -10 29 -63 8 -241 -1 -364 -19z m910 -2379 c14 -37
6 -62 -21 -67 -15 -3 -32 -3 -39 0 -20 7 -27 40 -14 63 13 25 65 28 74 4z
m-2219 -394 c7 -11 480 -250 496 -250 6 0 22 -9 36 -20 14 -11 33 -20 42 -20
9 0 32 -8 51 -18 43 -23 176 -56 190 -47 5 3 10 18 10 32 0 26 -14 56 -67 140
-18 28 -33 60 -33 70 0 20 29 -9 173 -174 49 -56 105 -116 125 -134 20 -18 97
-90 171 -161 l133 -128 -30 -78 c-56 -143 -58 -152 -42 -163 27 -17 43 -5 60
46 29 85 59 144 80 155 11 6 24 29 31 53 13 49 64 134 89 147 20 11 36 -4 84
-78 22 -32 39 -48 56 -50 24 -2 27 4 64 120 59 184 55 178 129 178 34 0 69 -6
78 -13 20 -16 41 -54 49 -92 7 -37 43 -46 62 -16 28 46 48 18 92 -129 35 -118
50 -253 42 -389 -6 -108 -9 -119 -50 -205 -23 -50 -58 -111 -77 -136 -144
-187 -359 -540 -359 -589 0 -23 -53 -128 -78 -154 -32 -34 -86 -49 -173 -50
-47 -1 -74 4 -93 16 -24 16 -26 23 -24 77 1 33 -1 62 -5 66 -17 17 -39 -27
-47 -93 -7 -68 -63 -317 -121 -543 -30 -117 -73 -242 -93 -271 -18 -25 -129
-151 -156 -176 -46 -42 -144 -128 -205 -178 -33 -27 -65 -54 -71 -60 -6 -5
-49 -44 -95 -85 -110 -99 -301 -283 -469 -450 -145 -145 -240 -261 -240 -295
0 -31 -11 -41 -62 -53 -64 -16 -143 -15 -176 2 -42 21 -103 97 -158 192 -68
118 -138 227 -156 242 -9 7 -42 19 -74 28 -84 21 -107 41 -121 105 -17 72 -10
97 32 115 50 21 53 34 6 34 -22 0 -43 -4 -46 -10 -10 -16 -51 -11 -68 8 -9 10
-44 76 -77 147 -33 72 -64 137 -69 145 -21 39 -61 203 -78 325 -3 22 -12 48
-20 57 -19 22 -88 44 -178 58 -38 6 -88 22 -111 35 -61 36 -114 95 -114 126 0
24 46 103 90 154 9 11 30 45 46 75 15 30 55 104 87 163 33 59 75 145 94 190
19 45 42 98 51 117 11 23 17 60 17 105 0 70 -1 72 -74 195 -41 69 -88 140
-104 159 -46 54 -67 108 -67 179 0 67 20 232 45 367 31 168 35 193 50 282 19
122 35 184 49 189 6 2 39 -9 73 -25 84 -41 180 -81 194 -81 6 0 25 -6 42 -14
54 -25 180 -63 226 -69 24 -3 51 -12 59 -21 14 -14 11 -21 -35 -68 -147 -154
-238 -251 -262 -282 -23 -29 -88 -108 -155 -186 -11 -14 -34 -42 -49 -63 -33
-44 -77 -70 -98 -56 -21 13 -49 11 -49 -4 0 -12 20 -23 113 -62 57 -24 88 -9
193 93 206 199 315 293 474 412 93 69 186 135 207 148 21 12 65 38 98 58 33
20 94 50 135 66 97 39 133 58 142 73 6 10 17 11 45 3 46 -11 159 -30 308 -52
61 -9 135 -21 166 -26 30 -6 69 -10 87 -10 41 0 112 29 112 45 0 8 -38 37 -85
65 -152 92 -292 194 -406 296 -36 33 -95 84 -132 114 -37 30 -67 58 -67 63 0
10 28 9 35 -3z m-890 -149 c3 -6 18 -16 33 -24 15 -7 52 -27 82 -44 30 -16 84
-43 120 -58 36 -16 72 -34 80 -40 8 -6 31 -16 50 -22 19 -6 92 -32 162 -56 69
-25 147 -49 172 -52 97 -15 39 -25 -131 -24 -141 1 -188 -2 -226 -15 -26 -9
-51 -16 -55 -16 -12 0 -81 68 -147 145 -33 39 -86 99 -117 134 -32 35 -58 68
-58 72 0 12 27 11 35 0z m2775 -100 c12 -33 19 -65 15 -70 -8 -13 -65 -14 -84
-2 -12 8 -13 16 -2 52 32 107 37 109 71 20z m-3426 -55 c28 -19 65 -47 83 -63
l32 -28 -14 -55 c-8 -30 -15 -64 -15 -77 0 -50 -22 -29 -67 64 -25 54 -52 105
-59 113 -14 18 -29 80 -18 80 4 0 30 -15 58 -34z m2991 -83 c21 -38 37 -78 37
-89 1 -26 -42 -86 -57 -81 -5 2 -13 32 -16 68 -4 35 -10 88 -14 117 -10 72 5
67 50 -15z m2558 -1157 c4 -10 -3 -13 -26 -10 -18 1 -35 3 -39 3 -5 1 -8 6 -8
11 0 15 67 12 73 -4z m-2241 -539 c20 -34 58 -92 84 -127 167 -225 150 -207
261 -297 29 -24 55 -43 59 -43 3 0 20 -11 38 -25 18 -14 51 -35 73 -48 22 -12
79 -44 126 -70 79 -44 87 -51 102 -95 51 -143 179 -392 272 -532 50 -75 98
-142 107 -149 9 -7 16 -26 16 -40 0 -27 -55 -128 -90 -166 -10 -11 -33 -41
-52 -67 -64 -89 -248 -297 -403 -455 -49 -50 -113 -115 -141 -145 -173 -179
-488 -471 -584 -541 -36 -26 -78 -58 -95 -71 -16 -13 -66 -42 -110 -65 -62
-32 -90 -41 -130 -41 -28 0 -56 5 -63 12 -27 27 -11 140 41 288 25 72 46 84
59 33 10 -38 38 -45 38 -10 0 12 -11 76 -25 142 -33 158 -90 330 -165 500 -10
22 -23 58 -30 80 -16 50 -64 138 -104 189 -21 27 -55 51 -120 82 -50 24 -97
44 -104 44 -10 0 -12 8 -7 30 11 50 -20 39 -205 -70 -30 -18 -65 -36 -78 -41
-13 -5 -61 -32 -108 -59 -47 -28 -87 -50 -89 -50 -3 0 -107 -58 -231 -130
-205 -117 -264 -145 -264 -122 0 12 263 286 361 376 35 32 114 107 174 165
142 136 241 228 350 321 48 41 145 132 216 201 136 134 168 180 195 287 8 31
25 84 39 118 13 33 31 96 39 140 9 43 25 115 36 159 11 44 20 90 20 102 0 16
13 31 40 48 33 21 52 25 112 25 149 1 228 41 268 136 11 24 23 44 27 44 4 0
24 -29 45 -63z m1343 -1417 c160 -27 193 -33 222 -46 17 -8 35 -14 41 -14 5 0
15 -6 21 -14 10 -11 5 -22 -21 -53 -18 -21 -35 -40 -38 -43 -3 -3 -25 -27 -49
-55 -24 -27 -69 -77 -100 -111 -90 -97 -177 -196 -211 -239 -17 -22 -35 -42
-39 -45 -4 -3 -41 -43 -81 -90 -40 -47 -78 -89 -84 -95 -6 -5 -45 -48 -86 -95
-41 -47 -81 -92 -90 -100 -9 -8 -33 -37 -55 -65 -55 -71 -367 -389 -505 -515
-15 -14 -52 -48 -81 -75 -30 -28 -72 -64 -94 -80 -22 -17 -53 -42 -70 -57 -40
-35 -186 -139 -205 -146 -8 -3 -23 -12 -33 -20 -49 -43 -217 -115 -297 -128
-8 -1 -39 -7 -69 -12 -69 -12 -120 0 -148 34 -38 48 -57 182 -50 357 8 217 14
232 142 361 57 57 106 102 109 99 3 -3 -3 -28 -14 -57 -74 -204 -53 -295 67
-296 102 0 303 118 503 296 165 146 558 536 731 724 58 63 116 126 128 140 13
14 30 36 39 50 9 14 24 31 33 37 10 7 43 48 75 90 32 43 64 84 70 91 7 6 32
47 55 90 23 42 47 80 53 84 14 10 67 9 131 -2z"/>
<path d="M4605 5696 c-96 -42 -248 -248 -326 -442 -42 -106 -47 -129 -25 -137
16 -6 46 22 46 43 0 8 18 50 40 95 51 103 91 129 202 130 98 0 148 -27 184
-101 23 -46 28 -52 47 -45 19 7 23 18 29 92 8 103 3 153 -24 244 -34 114 -94
156 -173 121z"/>
<path d="M2375 5466 c-16 -8 -48 -19 -70 -26 -22 -7 -105 -45 -185 -85 -167
-84 -306 -174 -472 -308 -35 -28 -35 -45 -1 -49 26 -3 29 -8 41 -68 7 -36 15
-86 19 -112 3 -27 10 -48 16 -48 15 0 241 126 307 171 70 48 259 232 292 284
33 53 97 196 100 225 4 28 -8 32 -47 16z m-29 -80 c9 -23 -51 -127 -119 -205
-80 -91 -190 -186 -283 -246 -92 -58 -105 -58 -101 -2 2 23 1 72 -2 110 -4 37
-3 74 1 81 16 28 451 272 491 275 4 1 10 -5 13 -13z"/>
<path d="M4680 5161 c-7 -14 -7 -22 1 -27 12 -7 29 12 29 34 0 19 -18 14 -30
-7z"/>
<path d="M1850 3827 c0 -8 9 -34 20 -58 26 -58 25 -76 -5 -92 -21 -11 -41 -11
-118 0 -110 16 -162 14 -162 -7 0 -11 23 -18 90 -27 186 -26 176 -26 220 5 38
27 40 31 38 75 -1 26 -10 62 -20 80 -20 34 -63 50 -63 24z"/>
<path d="M1992 2891 c-10 -6 -8 -10 10 -14 38 -11 58 -8 58 8 0 17 -46 21 -68
6z"/>
<path d="M7245 658 c-49 -4 -139 -15 -200 -24 -60 -8 -150 -20 -199 -25 -87
-10 -266 -50 -311 -71 -20 -9 -23 -20 -30 -90 -3 -43 -3 -162 1 -264 l7 -184
266 0 267 0 27 55 c15 30 31 55 36 55 5 0 35 -25 66 -55 l58 -55 264 0 265 0
-6 143 c-10 238 -23 451 -31 473 -4 12 -16 27 -28 33 -27 14 -323 20 -452 9z"/>
<path d="M3960 143 c-8 -2 -24 -8 -35 -13 -11 -4 -49 -19 -85 -33 -36 -14 -96
-40 -135 -58 l-70 -33 40 -4 c29 -2 56 5 100 28 33 17 100 45 149 62 109 38
138 32 211 -42 32 -33 58 -50 73 -50 24 0 23 2 -14 43 -75 83 -166 123 -234
100z"/>
<path d="M5912 118 c-5 -13 -7 -44 -4 -71 3 -38 8 -47 23 -47 18 0 20 6 17 67
-3 69 -21 95 -36 51z"/>
<path d="M3910 10 c-11 -7 0 -10 38 -10 33 0 51 4 47 10 -8 13 -65 13 -85 0z"/>
</g>
</svg>
