<?xml version="1.0" standalone="no"?>
<!DOCTYPE svg PUBLIC "-//W3C//DTD SVG 20010904//EN"
 "http://www.w3.org/TR/2001/REC-SVG-20010904/DTD/svg10.dtd">
<svg version="1.0" xmlns="http://www.w3.org/2000/svg"
 width="550.400000pt" height="408.000000pt" viewBox="0 0 550.400000 408.000000"
 preserveAspectRatio="xMidYMid meet">
<metadata>
Created by potrace 1.13, written by Peter Selinger 2001-2015
</metadata>
<g transform="translate(0.000000,408.000000) scale(0.080000,-0.080000)"
fill="#000000" stroke="none">
<path d="M1133 5070 c-3 -17 -29 -57 -57 -88 -28 -32 -62 -72 -76 -88 -14 -16
-38 -45 -55 -65 -16 -19 -46 -55 -65 -79 -19 -24 -48 -60 -65 -81 -61 -76 -67
-84 -78 -106 -5 -13 -14 -23 -19 -23 -4 0 -8 -4 -8 -9 0 -4 -18 -41 -41 -82
-50 -91 -55 -131 -39 -298 l12 -131 -58 -71 c-32 -39 -64 -73 -71 -76 -7 -3
-13 -11 -13 -18 0 -7 -3 -15 -8 -17 -4 -1 -25 -25 -47 -53 -22 -27 -50 -61
-62 -74 -13 -13 -23 -30 -23 -37 0 -8 -4 -14 -10 -14 -5 0 -20 -15 -32 -34
-13 -18 -49 -67 -80 -109 -32 -42 -58 -80 -58 -85 0 -5 -7 -16 -16 -23 -9 -8
-28 -31 -43 -53 -14 -21 -37 -55 -51 -76 -62 -92 -70 -107 -70 -133 0 -24 2
-26 14 -15 8 7 43 40 77 74 61 58 231 194 242 194 3 0 25 13 49 28 24 16 58
35 76 43 17 8 32 17 32 21 0 5 5 8 10 8 6 0 29 9 53 19 64 29 126 51 141 51 9
0 15 -18 19 -52 4 -29 11 -96 17 -148 6 -52 20 -115 31 -139 10 -24 16 -48 12
-54 -3 -6 -1 -7 5 -3 7 4 12 1 12 -7 0 -21 84 -189 124 -247 20 -29 36 -64 37
-79 0 -14 1 -55 2 -91 2 -62 1 -65 -23 -68 -74 -9 -272 -60 -390 -99 -153 -51
-214 -80 -263 -123 -52 -45 -171 -298 -222 -469 -23 -78 -40 -99 -48 -59 -13
67 -5 -343 8 -431 27 -181 37 -199 315 -541 25 -32 40 -64 53 -119 24 -107 29
-171 12 -165 -7 3 -16 -3 -20 -13 -3 -10 -26 -28 -50 -40 -38 -19 -47 -20 -59
-8 -7 8 -16 11 -20 8 -3 -4 -6 4 -6 16 0 21 0 22 -24 4 -13 -10 -19 -21 -14
-24 6 -4 0 -14 -13 -23 -22 -15 -24 -15 -29 0 -5 14 -11 12 -40 -12 -48 -39
-50 -43 -46 -91 2 -24 -1 -43 -5 -43 -5 0 -9 15 -9 33 0 44 -15 66 -24 35 -7
-21 -8 -22 -15 -4 -7 18 -8 18 -14 2 -13 -34 -8 -59 10 -52 16 6 16 6 0 -12
-15 -16 -17 -46 -17 -235 l0 -217 369 0 c286 0 370 3 374 13 4 10 6 10 6 0 1
-8 15 -13 37 -13 l35 0 -43 47 c-46 50 -106 115 -137 148 -43 46 -89 124 -110
190 -42 124 -134 485 -127 493 3 3 100 -92 153 -149 53 -58 131 -119 152 -119
7 0 21 -9 33 -19 12 -12 48 -24 92 -31 39 -7 85 -16 102 -21 18 -6 84 -10 147
-11 114 0 116 -1 143 -29 15 -16 33 -29 40 -29 6 0 14 -6 17 -14 3 -8 20 -17
38 -21 31 -7 68 -23 79 -35 3 -3 39 -16 80 -29 41 -13 104 -33 140 -45 56 -17
136 -69 175 -112 6 -6 39 -37 75 -68 98 -86 120 -109 120 -128 0 -16 55 -17
888 -18 756 0 883 2 862 14 -14 7 -50 27 -80 43 -30 16 -86 48 -124 71 -37 23
-70 42 -73 42 -3 0 -45 27 -95 60 -49 33 -94 60 -99 60 -5 0 -9 5 -9 10 0 6
-5 10 -11 10 -6 0 -30 14 -54 30 -24 17 -46 30 -50 30 -8 0 -287 191 -325 223
-8 6 -60 46 -115 87 -140 106 -225 192 -263 269 -17 35 -36 69 -41 75 -5 6
-12 22 -16 35 -4 14 -31 74 -60 135 -55 115 -90 197 -131 303 -13 34 -28 70
-33 80 -5 10 -22 45 -36 78 -24 53 -28 57 -35 38 -12 -29 -108 -93 -142 -93
-37 0 -145 53 -189 93 -24 21 -43 52 -57 92 -11 33 -34 95 -51 138 -16 44 -27
85 -24 93 3 8 0 14 -6 14 -6 0 -11 -4 -11 -10 0 -5 -5 -10 -11 -10 -10 0 -129
77 -139 90 -3 4 -12 9 -20 13 -8 4 -33 18 -55 32 -22 14 -51 30 -65 37 -14 7
-27 15 -30 19 -7 9 -158 109 -164 109 -12 0 -79 68 -100 100 -33 50 -47 120
-53 247 -5 106 11 356 25 378 3 5 7 15 9 20 12 56 35 121 48 142 17 25 20 26
96 20 82 -5 165 -36 180 -67 39 -79 69 -151 69 -164 0 -8 4 -16 9 -18 5 -1 28
-39 51 -83 48 -89 160 -268 172 -273 5 -2 8 -8 8 -13 0 -5 15 -25 33 -43 74
-77 107 -137 107 -198 0 -20 4 -26 15 -22 9 4 17 -1 21 -12 3 -11 10 -27 15
-36 5 -10 9 -23 9 -29 0 -6 9 -23 21 -37 14 -18 18 -34 14 -52 -4 -16 -3 -20
3 -12 15 22 34 -43 21 -71 -8 -19 -9 -18 -4 8 4 25 3 27 -6 12 -6 -10 -8 -30
-4 -45 7 -27 7 -27 16 -4 10 26 27 29 36 5 6 -18 60 -146 81 -193 11 -24 11
-24 6 5 -4 17 -19 57 -35 91 -16 33 -29 68 -29 77 0 9 -4 18 -9 22 -6 3 -13
26 -17 51 -3 25 -12 48 -19 51 -7 2 -16 16 -20 31 -4 15 -22 62 -41 105 l-34
78 29 77 c17 42 33 90 37 107 6 26 8 27 15 10 7 -19 8 -19 8 -1 1 18 2 18 19
-1 9 -11 24 -18 32 -16 10 3 8 -1 -4 -11 -17 -14 -17 -16 -4 -16 9 0 20 5 24
11 9 15 34 147 34 182 0 15 2 27 5 27 7 0 99 -44 105 -50 3 -3 32 -20 65 -36
33 -17 83 -44 110 -59 28 -15 68 -38 90 -50 102 -57 112 -65 139 -121 15 -31
25 -58 23 -60 -3 -3 -29 6 -58 20 -97 45 -220 96 -233 96 -7 0 -39 11 -72 24
-32 13 -81 27 -108 31 l-49 7 32 -33 c18 -18 45 -50 59 -71 14 -21 27 -36 30
-33 6 6 -40 75 -50 75 -5 0 -8 7 -8 15 0 8 2 15 5 15 7 0 158 -50 180 -60 11
-4 41 -16 67 -26 26 -9 53 -23 59 -30 6 -8 17 -14 24 -14 7 0 41 -14 75 -32
52 -26 61 -34 56 -52 -17 -59 -17 -75 3 -115 12 -23 38 -52 62 -66 22 -14 43
-33 46 -41 3 -8 12 -13 19 -10 8 3 14 1 14 -4 0 -6 16 -10 36 -10 40 0 63 -21
64 -57 0 -50 30 -16 30 35 1 30 67 109 80 95 5 -4 10 -19 13 -33 3 -17 5 -13
6 15 1 22 5 36 9 30 4 -5 23 -18 42 -28 19 -9 58 -31 85 -47 28 -16 59 -34 70
-39 11 -5 33 -21 50 -37 l30 -28 -30 -12 c-17 -7 -39 -14 -50 -14 -11 -1 -29
-6 -40 -11 -16 -7 -12 -8 17 -6 43 3 37 -13 -12 -33 -35 -14 -41 -35 -7 -24
55 17 69 25 74 44 3 11 21 25 39 32 21 7 34 18 32 27 -4 17 -60 57 -183 130
-120 71 -155 98 -149 116 5 11 12 10 42 -7 35 -19 102 -61 166 -104 55 -37
121 -75 199 -114 104 -53 143 -53 206 -3 25 20 48 38 50 40 3 2 0 8 -6 14 -8
8 -16 4 -28 -15 -21 -31 -43 -33 -93 -7 -50 25 -93 65 -354 324 l-220 219 6
256 c4 142 12 316 18 387 6 72 10 137 10 145 -1 8 2 56 5 105 7 97 5 100 32
-35 27 -134 101 -409 127 -468 8 -18 14 -41 14 -51 0 -10 6 -24 14 -30 8 -7
17 -22 20 -35 10 -39 116 -210 165 -265 11 -13 21 -27 21 -30 0 -3 27 -35 59
-71 33 -36 57 -69 53 -74 -3 -5 2 -7 11 -3 8 3 18 0 20 -7 3 -7 26 -30 52 -51
35 -29 49 -35 54 -26 12 19 44 9 57 -17 8 -15 14 -20 19 -12 4 7 15 3 32 -15
14 -14 32 -25 40 -25 8 0 11 -5 7 -11 -4 -7 -20 -8 -42 -4 -37 7 -35 2 12 -35
18 -14 19 -13 13 4 -6 14 -4 17 10 12 9 -4 20 -1 24 5 5 8 22 1 55 -22 27 -18
51 -35 54 -39 3 -3 17 -11 33 -17 15 -7 27 -17 27 -23 0 -5 9 -10 20 -10 11 0
20 -3 20 -6 0 -11 -26 -31 -48 -38 -12 -4 -20 -12 -16 -17 9 -16 -16 -39 -44
-39 -14 0 -36 9 -48 21 -12 11 -25 16 -28 11 -6 -10 38 -48 84 -72 14 -7 54
-14 90 -14 44 -1 74 -7 90 -18 46 -31 146 -133 170 -173 13 -22 30 -44 37 -48
7 -4 13 -15 13 -22 0 -8 5 -15 10 -15 12 0 12 49 1 108 -7 33 -5 44 6 51 13 7
13 10 0 22 -24 24 -31 58 -13 65 21 8 20 20 -5 45 -26 26 -22 30 25 19 42 -9
58 -20 39 -27 -7 -3 -13 -9 -13 -14 0 -11 37 -12 43 -1 2 4 2 1 0 -7 -2 -7 5
-20 14 -28 17 -14 17 -14 -4 -10 -12 3 -30 -1 -40 -9 -16 -12 -16 -13 -1 -14
9 0 18 5 20 11 2 6 14 2 28 -10 14 -11 19 -20 13 -21 -7 0 -13 5 -13 10 0 6
-7 10 -15 10 -8 0 -15 -2 -15 -5 0 -10 49 -55 60 -55 5 0 10 -6 10 -14 0 -7
11 -21 25 -30 14 -9 25 -23 25 -32 0 -8 4 -12 10 -9 6 3 10 0 11 -7 0 -7 5 -2
10 11 13 33 -7 127 -32 152 -10 10 -14 19 -9 19 6 0 0 20 -12 44 -16 30 -28
42 -38 38 -13 -5 -13 -4 0 9 9 9 46 22 83 29 37 7 70 16 73 21 3 5 17 9 32 9
29 0 162 63 202 96 37 30 150 148 150 156 0 5 6 8 14 8 8 0 17 7 20 16 3 8 10
12 16 9 6 -3 7 1 4 9 -7 19 0 20 27 6 13 -7 19 -7 19 0 0 5 -7 10 -15 10 -16
0 -20 12 -8 23 3 4 13 1 21 -6 13 -9 14 -9 8 1 -9 15 4 16 24 1 11 -8 12 -12
3 -16 -7 -2 -13 -9 -13 -14 0 -6 5 -7 10 -4 6 3 10 -4 10 -17 0 -17 3 -19 9
-9 5 8 14 10 21 6 7 -4 16 -2 21 6 6 10 9 8 9 -9 0 -15 4 -21 12 -16 7 5 8 3
4 -5 -5 -7 -15 -10 -23 -7 -30 12 -2 -11 36 -30 23 -10 41 -22 41 -26 0 -5 11
-8 24 -8 23 0 24 -3 19 -38 -3 -20 -16 -71 -28 -112 -13 -41 -33 -109 -44
-150 -12 -41 -43 -156 -71 -255 -75 -272 -109 -387 -119 -399 -4 -6 -16 -36
-26 -66 -10 -30 -23 -62 -30 -70 -6 -8 -20 -33 -31 -55 -17 -35 -58 -98 -129
-195 -11 -15 -42 -61 -70 -101 -27 -41 -53 -76 -56 -79 -4 -3 -46 -63 -94
-135 -48 -72 -95 -139 -105 -150 -10 -11 -24 -32 -31 -46 -13 -25 -31 -49
-107 -143 -18 -23 -39 -48 -45 -56 -7 -9 -40 -50 -74 -92 -35 -42 -63 -79 -63
-82 0 -3 417 -6 928 -6 l927 1 70 100 c39 55 79 113 91 127 28 37 130 210 177
302 21 41 49 95 62 120 13 25 41 84 63 132 l40 86 39 -8 c45 -11 240 -46 298
-54 22 -3 50 -9 63 -12 l22 -6 -2 787 c-3 776 -3 788 -23 799 -11 6 -22 14
-25 17 -22 24 -146 99 -255 153 -27 14 -61 32 -75 40 -14 8 -43 24 -65 34 -22
10 -49 23 -60 30 -26 15 -130 61 -232 101 -46 18 -83 36 -83 40 2 23 42 51 74
51 42 0 47 15 9 27 l-27 9 -1 227 -2 227 159 0 c88 0 168 4 178 10 10 5 42 11
70 12 31 2 54 8 57 15 3 8 14 11 28 7 13 -3 26 0 30 6 6 9 9 9 15 0 6 -9 13
-9 28 -1 11 6 34 11 49 11 16 0 34 5 40 11 6 6 34 11 62 11 l51 0 0 844 0 844
-2870 0 -2870 0 -7 -30z m5737 -244 c0 -7 -4 -16 -10 -22 -5 -5 -10 -45 -12
-89 -2 -44 -7 -80 -13 -81 -5 0 -17 -3 -25 -7 -8 -3 -44 -8 -80 -11 -36 -3
-99 -9 -140 -14 -41 -5 -100 -6 -130 -3 l-55 6 68 32 c37 18 79 36 93 39 14 4
28 13 31 20 3 8 10 14 17 14 14 0 171 92 200 117 22 20 56 19 56 -1z m-4611
-1328 c-2 -190 15 -385 37 -442 6 -15 4 -17 -7 -10 -8 5 -18 9 -24 9 -5 1 -9
5 -8 11 2 11 -100 2 -166 -15 -24 -7 -45 -10 -47 -8 -2 1 4 30 12 62 9 33 18
69 19 80 2 11 8 36 13 55 6 19 19 67 29 105 11 39 27 86 35 105 9 19 24 58 33
85 10 28 29 69 42 92 13 23 23 49 23 57 0 9 2 16 5 16 3 0 4 -91 4 -202z
m1401 142 c6 0 10 -4 10 -9 0 -8 80 -135 100 -158 5 -7 10 -22 10 -35 0 -19 2
-20 10 -8 8 13 10 12 10 -2 0 -10 5 -18 10 -18 6 0 10 -6 9 -12 -3 -17 22 -68
33 -68 4 0 8 -6 8 -13 0 -7 8 -22 18 -33 9 -11 31 -47 47 -79 17 -33 37 -67
45 -76 8 -9 29 -42 45 -74 17 -31 40 -64 53 -72 12 -9 22 -22 22 -29 0 -8 4
-14 10 -14 5 0 6 -7 3 -17 -4 -11 -3 -14 5 -9 7 4 12 2 12 -3 0 -13 239 -251
252 -251 4 0 8 -11 8 -25 0 -14 -4 -25 -10 -25 -5 0 -20 -17 -33 -37 -23 -37
-63 -85 -119 -146 -16 -17 -28 -36 -28 -43 0 -8 -4 -14 -9 -14 -5 0 -17 -3
-25 -6 -12 -5 -15 -2 -10 12 5 17 4 17 -12 -1 l-17 -20 7 20 c4 11 8 22 8 25
3 10 -26 60 -34 60 -4 0 -8 7 -8 17 0 25 -72 143 -83 136 -6 -3 -7 -2 -4 4 4
5 -25 74 -63 152 -39 78 -70 146 -70 151 0 6 -5 10 -11 10 -5 0 -8 4 -5 8 3 5
-10 41 -29 80 -19 39 -35 77 -35 83 0 12 -35 119 -51 154 -5 11 -18 54 -28 95
-10 41 -24 86 -29 100 -6 14 -18 61 -28 105 -9 44 -20 88 -25 97 -5 9 -6 25
-2 35 6 14 8 11 15 -15 5 -17 13 -32 18 -32z m2336 -48 c24 -13 60 -103 80
-202 13 -63 18 -136 18 -280 1 -107 -2 -203 -6 -213 -7 -17 -9 -17 -29 2 -12
11 -26 18 -31 15 -4 -3 -8 1 -8 9 0 7 -9 13 -22 13 -18 -1 -23 7 -32 54 -14
65 -44 101 -109 130 -26 11 -52 29 -60 40 -8 11 -17 17 -22 12 -5 -4 -5 -1 -1
6 4 7 -1 27 -12 45 -11 17 -23 46 -26 62 -4 17 -14 44 -21 60 -22 50 -41 119
-38 135 4 15 95 80 113 80 5 0 10 4 10 9 0 5 15 12 33 17 17 4 43 10 57 14 33
8 84 4 106 -8z m-1275 -216 c5 3 12 -2 15 -10 7 -17 189 -198 207 -206 17 -7
19 -26 4 -38 -7 -5 -35 -13 -63 -17 -50 -6 -52 -6 -70 27 -11 18 -28 53 -39
78 -11 25 -24 48 -30 52 -5 4 -7 8 -2 8 4 0 -4 22 -18 50 -14 27 -24 57 -24
67 1 17 2 17 6 0 2 -9 9 -15 14 -11z m513 -471 c8 -8 19 -15 25 -15 6 0 11 -4
11 -10 0 -5 7 -10 15 -10 8 0 15 -4 15 -9 0 -5 14 -12 30 -16 17 -4 30 -11 30
-16 0 -6 9 -8 20 -4 15 5 18 3 14 -9 -3 -9 -1 -16 5 -16 6 0 2 -19 -10 -46
-10 -26 -26 -77 -35 -115 -9 -38 -20 -69 -25 -69 -5 0 -9 -8 -9 -17 -1 -11 -7
-4 -15 15 -8 18 -22 36 -32 40 -20 8 -41 26 -143 126 -70 68 -85 101 -52 113
9 4 35 18 57 33 64 43 77 46 99 25z m-2395 -102 c0 -44 -2 -53 -9 -36 -8 20
-3 93 6 93 2 0 4 -26 3 -57z m3211 8 c0 -4 -19 -26 -42 -49 -48 -49 -84 -56
-94 -17 -3 14 -13 25 -21 25 -9 0 -13 6 -9 15 3 8 1 15 -5 15 -6 0 -8 4 -5 9
3 5 38 9 78 10 39 1 74 3 76 6 6 6 22 -4 22 -14z m-576 -25 c9 3 16 1 16 -5 0
-6 6 -11 14 -11 8 0 21 -6 28 -12 19 -18 38 -21 54 -7 11 9 15 8 20 -5 4 -9
18 -16 34 -16 16 0 32 -4 35 -10 3 -5 26 -10 50 -10 24 0 47 -4 50 -10 3 -5
19 -10 36 -10 16 0 29 5 29 10 0 6 -5 10 -11 10 -5 0 -7 5 -4 11 5 6 13 3 22
-10 8 -12 20 -21 27 -21 8 0 19 -6 25 -14 10 -12 3 -21 -36 -51 -60 -45 -176
-156 -225 -213 -36 -43 -37 -43 -65 -28 -16 8 -35 22 -42 30 -8 9 -18 16 -23
16 -11 0 -72 42 -76 53 -2 4 -10 7 -18 7 -8 0 -14 4 -14 9 0 5 -11 12 -25 15
-34 9 -32 25 12 167 33 102 40 116 55 108 9 -5 24 -6 32 -3z m-743 -266 c7 0
-2 -11 -21 -24 -21 -15 -39 -21 -44 -15 -16 15 -30 10 -17 -5 14 -17 11 -20
-64 -69 -28 -17 -58 -36 -66 -42 -48 -31 -124 -86 -178 -128 -33 -27 -61 -44
-61 -40 0 10 26 34 160 146 52 43 108 90 124 103 16 14 43 34 60 47 17 12 40
30 51 40 18 16 21 16 31 2 6 -8 17 -15 25 -15z m79 -40 c-12 -8 -9 -10 11 -10
14 0 39 -6 55 -14 16 -8 41 -19 56 -25 32 -12 31 -30 -5 -71 -15 -16 -27 -34
-27 -38 0 -8 -17 -31 -48 -67 -79 -90 -215 -174 -317 -196 -33 -7 -64 -16 -70
-20 -14 -10 -88 -14 -103 -5 -7 4 -19 3 -26 -3 -7 -6 -40 -10 -74 -10 -56 1
-63 3 -68 25 -7 26 3 47 17 39 5 -4 9 1 9 10 0 9 5 13 10 10 6 -3 10 1 10 9 0
8 9 17 19 21 11 3 26 17 35 30 9 14 27 32 41 41 24 16 26 15 62 -16 34 -31 40
-32 93 -27 98 11 173 56 221 133 18 29 21 45 15 88 -5 46 -3 55 16 72 14 12
19 14 13 4 -4 -8 2 -5 14 8 12 12 29 22 39 22 15 0 15 -2 2 -10z m-2221 -81
c26 -43 26 -50 0 -41 -18 7 -48 66 -49 95 0 13 26 -16 49 -54z m2731 -37 c0
-5 15 -14 34 -22 19 -7 32 -18 30 -25 -5 -12 33 -19 161 -31 27 -3 51 -7 53
-8 1 -2 0 -34 -4 -72 -6 -61 -11 -72 -44 -103 -44 -44 -80 -73 -80 -65 0 3
-15 -6 -32 -19 -35 -25 -131 -67 -155 -67 -7 0 -32 12 -54 26 -31 19 -39 29
-33 42 3 9 15 46 25 81 10 35 20 66 23 68 2 3 26 -3 53 -12 26 -9 66 -20 88
-25 22 -5 50 -12 63 -15 14 -5 22 -3 22 4 0 6 -7 11 -16 11 -9 0 -18 9 -21 20
-3 11 -9 20 -13 20 -4 0 -22 13 -39 29 -17 16 -31 27 -31 24 0 -3 -16 14 -35
37 -33 40 -38 67 -18 103 6 10 23 9 23 -1z m-736 -11 c12 -19 -7 -39 -45 -49
-50 -13 -57 -1 -18 32 32 27 54 33 63 17z m713 -126 c-7 -7 -14 -9 -15 -4 -2
5 -8 6 -14 3 -6 -4 -5 3 2 15 9 18 14 20 25 11 11 -9 12 -15 2 -25z m-1236
-255 c6 0 7 5 3 12 -5 7 -3 8 5 4 7 -5 10 -14 7 -21 -3 -8 0 -15 5 -17 6 -2
12 -15 12 -30 1 -14 6 -24 10 -21 13 8 57 -18 50 -30 -3 -5 0 -13 7 -17 7 -4
9 -13 6 -19 -12 -19 -24 -12 -31 19 -5 23 -12 30 -31 30 -19 0 -26 6 -31 31
-4 22 -8 27 -14 17 -7 -10 -10 -8 -15 9 -4 13 -11 20 -20 16 -17 -6 -18 1 -2
27 11 16 14 17 21 5 4 -8 13 -15 18 -15z m71 -10 c-2 -7 5 -21 14 -31 23 -26
10 -24 -21 3 -29 25 -33 48 -7 43 9 -1 16 -8 14 -15z m-4012 -1430 c0 -5 -9
-14 -20 -20 -17 -9 -20 -8 -20 10 0 13 7 20 20 20 11 0 20 -4 20 -10z m378
-121 c6 -23 6 -42 0 -50 -7 -12 -9 -11 -7 1 3 35 -2 61 -11 55 -12 -7 -12 -3
-4 20 8 20 10 18 22 -26z"/>
<path d="M5300 2334 c0 -9 11 -14 31 -14 35 0 31 15 -6 22 -17 4 -25 1 -25 -8z"/>
<path d="M1248 2826 c-35 -26 -60 -104 -65 -207 -6 -106 4 -141 46 -152 30 -7
94 28 139 77 60 65 98 89 129 81 25 -6 24 -4 -14 43 -38 49 -115 121 -157 147
-34 21 -60 25 -78 11z"/>
<path d="M1644 2405 c0 -77 2 -107 3 -67 2 40 2 103 0 140 -2 37 -3 4 -3 -73z"/>
<path d="M1958 2467 c-5 -10 -8 -33 -7 -50 0 -31 1 -31 10 -7 5 13 9 36 7 50
-3 21 -4 22 -10 7z"/>
<path d="M1950 2349 c0 -19 -4 -49 -9 -67 -6 -18 -6 -43 -2 -55 6 -15 10 3 15
62 4 45 5 85 2 89 -3 3 -6 -10 -6 -29z"/>
<path d="M2246 2299 c67 -75 264 -252 272 -244 2 2 -13 19 -34 37 -73 63 -138
123 -188 176 -48 49 -90 76 -50 31z"/>
<path d="M3560 2299 c0 -14 47 -59 62 -59 4 0 8 5 8 11 0 5 -4 8 -9 5 -9 -6
-48 32 -43 42 2 4 -1 8 -7 10 -6 2 -11 -2 -11 -9z"/>
<path d="M5015 2281 c-19 -8 -18 -9 7 -21 32 -15 68 -6 49 13 -9 9 -14 9 -21
-3 -9 -14 -14 -7 -11 13 0 4 0 7 -1 6 -2 0 -12 -4 -23 -8z"/>
<path d="M1631 2219 c0 -25 -4 -74 -8 -109 -5 -47 -3 -61 6 -56 6 4 9 11 6 16
-3 5 -1 11 5 15 5 3 10 -2 10 -12 0 -15 2 -16 10 -3 6 10 5 17 -4 22 -15 8
-16 104 -2 127 6 9 5 12 -2 7 -6 -3 -12 3 -15 16 -2 13 -5 2 -6 -23z"/>
<path d="M5070 2240 c0 -5 11 -10 24 -10 14 0 28 -5 31 -10 4 -6 12 -10 18 -9
28 3 48 -2 42 -11 -3 -5 0 -10 8 -10 31 0 12 30 -22 35 -20 4 -46 10 -59 16
-30 12 -42 11 -42 -1z"/>
<path d="M3711 2191 c-10 -7 -4 -17 25 -45 22 -19 45 -36 52 -36 6 0 12 -4 12
-10 0 -5 5 -10 10 -10 23 0 7 29 -19 35 -24 5 -29 11 -26 31 2 18 -1 22 -8 15
-17 -17 -30 -13 -24 9 6 22 0 25 -22 11z"/>
<path d="M2530 2044 c0 -9 55 -53 66 -54 6 0 19 -9 29 -20 10 -11 25 -20 34
-20 12 1 11 3 -4 12 -11 6 -22 14 -25 18 -9 11 -100 70 -100 64z"/>
<path d="M2704 1968 c4 -13 0 -18 -12 -18 -14 -1 -14 -3 5 -19 20 -17 23 -32
32 -172 l10 -154 -4 159 c-2 117 0 155 8 147 6 -6 20 -11 30 -11 17 0 19 -5
14 -35 -3 -21 -2 -33 4 -30 5 4 9 19 9 35 0 15 5 30 11 32 5 2 7 11 4 21 -5
12 -14 15 -31 11 -28 -7 -77 3 -70 14 3 4 0 14 -6 22 -8 12 -9 12 -4 -2z"/>
<path d="M2861 1933 c-1 -6 -9 -13 -18 -16 -13 -2 -9 -7 15 -18 41 -17 122
-13 122 7 0 10 -14 14 -54 14 -34 0 -56 5 -59 13 -4 8 -6 8 -6 0z"/>
<path d="M3150 1875 c-36 -19 -80 -42 -97 -52 -18 -9 -33 -23 -33 -30 0 -15
16 -17 25 -3 3 6 26 19 50 30 25 11 60 30 79 43 18 12 42 27 52 34 43 27 -14
11 -76 -22z"/>
<path d="M3905 1868 c-18 -43 -19 -62 -5 -53 7 4 8 -3 4 -22 -7 -25 -5 -27 9
-15 20 17 49 100 36 107 -5 4 -9 3 -9 -2 0 -4 -5 -1 -10 7 -7 12 -12 7 -25
-22z"/>
<path d="M3808 1858 c-34 -37 -38 -64 -8 -48 11 6 20 16 20 22 0 7 10 22 22
35 15 16 17 23 7 23 -8 -1 -26 -15 -41 -32z"/>
<path d="M2975 1852 c3 -23 1 -31 -7 -26 -8 5 -9 2 -3 -12 5 -10 10 -52 11
-92 2 -41 5 -76 7 -78 9 -10 6 195 -3 218 -9 20 -10 19 -5 -10z"/>
<path d="M2057 1780 c15 -33 28 -58 31 -55 7 6 -39 115 -48 115 -5 0 3 -27 17
-60z"/>
<path d="M3951 1001 c-95 -97 -167 -151 -201 -151 -53 0 -229 72 -255 104 -10
13 -76 39 -82 33 -8 -9 140 -97 162 -97 8 0 15 -4 15 -10 0 -5 8 -10 18 -10
10 0 22 -4 27 -9 6 -4 31 -14 57 -21 54 -14 102 -3 154 35 46 35 194 183 194
195 0 19 -15 8 -89 -69z"/>
<path d="M6852 758 c2 -13 8 -23 13 -23 6 0 11 10 13 23 2 15 -2 22 -13 22
-11 0 -15 -7 -13 -22z"/>
<path d="M357 744 c-3 -3 -3 -12 0 -20 3 -9 -2 -14 -16 -14 -12 0 -21 -6 -21
-15 0 -18 -1 -18 37 -5 25 9 29 15 25 35 -4 25 -13 31 -25 19z"/>
<path d="M3945 520 c-4 -6 -25 -20 -47 -31 -22 -11 -49 -29 -60 -38 -26 -25
-85 -41 -149 -41 -63 0 -55 -16 11 -23 42 -4 65 2 140 37 14 6 27 14 30 17 3
3 26 20 53 38 26 17 47 36 47 41 0 13 -17 13 -25 0z"/>
<path d="M3527 443 c-8 -7 46 -33 69 -33 8 0 14 5 14 10 0 6 -13 10 -28 10
-15 0 -33 5 -38 10 -6 6 -13 7 -17 3z"/>
<path d="M6250 374 c0 -38 67 -184 113 -245 9 -13 23 -33 31 -44 29 -41 23 -8
-6 35 -43 63 -93 158 -108 205 -13 40 -30 68 -30 49z"/>
</g>
</svg>
